<svg xmlns="http://www.w3.org/2000/svg" version="1.1" xmlns:xlink="http://www.w3.org/1999/xlink" xmlns:svgjs="http://svgjs.dev/svgjs" width="128" height="128" viewBox="0 0 128 128"><g transform="matrix(0.8046875,0,0,0.8046875,12.165511314978048,11.70253437912163)"><svg viewBox="0 0 58 59" data-background-color="#ffffff" preserveAspectRatio="xMidYMid meet" height="130" width="128" xmlns="http://www.w3.org/2000/svg" xmlns:xlink="http://www.w3.org/1999/xlink"><g id="tight-bounds" transform="matrix(1,0,0,1,0.18837875546689986,-0.0036290622685299923)"><svg viewBox="0 0 57.62324248906621 59.007258" height="59.007258" width="57.62324248906621"><g><svg viewBox="0 0 57.62324248906621 59.007258" height="59.007258" width="57.62324248906621"><g><svg viewBox="0 0 57.62324248906621 59.007258" height="59.007258" width="57.62324248906621"><g><svg viewBox="0 0 57.62324248906621 59.007258" height="59.007258" width="57.62324248906621"><g id="textblocktransform"><svg viewBox="0 0 57.62324248906621 59.007258" height="59.007258" width="57.62324248906621" id="textblock"><g><svg viewBox="0 0 57.62324248906621 59.007258" height="59.007258" width="57.62324248906621"><g><svg viewBox="0 0 57.62324248906621 59.007258" height="59.007258" width="57.62324248906621"><g><svg xmlns="http://www.w3.org/2000/svg" xmlns:xlink="http://www.w3.org/1999/xlink" version="1.1" x="0" y="0" viewBox="2.8650208 2.3093565999999983 46.26995840000001 47.3812867" enable-background="new 0 0 52 52" xml:space="preserve" height="59.007258" width="57.62324248906621" class="icon-icon-0" data-fill-palette-color="accent" id="icon-0"><g fill="#096a2e" data-fill-palette-color="accent"><path d="M48.175 16.559c-1.69-0.55-3.44-0.83-5.2-0.83-6.406 0-12.137 3.569-14.984 9.098 0.753-2.356 1.585-4.445 2.401-6.237 2.885-1.097 5.231-3.186 6.623-5.961 1.47-2.92 1.7-6.24 0.66-9.38l-0.34-0.94L36.385 2.629c-3.14 1.03-5.69 3.22-7.17 6.17-1.427 2.834-1.684 6.043-0.748 9.064-0.673 1.478-1.354 3.147-1.992 4.993v-2.997c0-9.54-7.75-17.29-17.29-17.29H2.865v6.18c0 9.54 7.76 17.3 17.3 17.3h4.975c0.064 0.171 0.129 0.341 0.191 0.515-1.713 6.277-2.728 14.109-1.589 23.127l1.984-0.251c-0.951-7.528-0.309-14.244 0.973-19.875l0.001 0.001c0.256-0.295 0.61-0.615 1.045-0.954 1.653 0.518 3.351 0.788 5.06 0.787 7.32 0 13.75-4.66 16.02-11.58l0.31-0.95L48.175 16.559z" fill="#096a2e" data-fill-palette-color="accent"></path></g></svg></g></svg></g></svg></g></svg></g></svg></g></svg></g></svg></g><defs></defs></svg><rect width="57.62324248906621" height="59.007258" fill="none" stroke="none" visibility="hidden"></rect></g></svg></g></svg>